<svg width="46" height="26" viewBox="0 0 46 26" fill="none" xmlns="http://www.w3.org/2000/svg">
<g id="BAHASA SCHOOL">
<path d="M13.3765 26C10.8531 26 8.57469 25.4385 6.54127 24.3155C4.50784 23.1681 2.90313 21.6056 1.72718 19.6282C0.575721 17.6507 0 15.4413 0 13C0 10.5587 0.575721 8.3493 1.72718 6.37183C2.90313 4.39437 4.50784 2.84413 6.54127 1.72113C8.57469 0.573709 10.8531 0 13.3765 0C15.8999 0 18.1783 0.561502 20.2118 1.68451C22.2452 2.80751 23.8376 4.35775 24.9891 6.33521C26.165 8.31268 26.753 10.5343 26.753 13C26.753 15.4657 26.165 17.6873 24.9891 19.6648C23.8376 21.6423 22.2452 23.1925 20.2118 24.3155C18.1783 25.4385 15.8999 26 13.3765 26ZM13.3765 24.2789C15.5324 24.2789 17.4801 23.7906 19.2195 22.8141C20.959 21.8376 22.3309 20.4948 23.3354 18.7859C24.3399 17.0526 24.8421 15.1239 24.8421 13C24.8421 10.8761 24.3399 8.95962 23.3354 7.2507C22.3309 5.51737 20.959 4.16244 19.2195 3.18592C17.4801 2.20939 15.5324 1.72113 13.3765 1.72113C11.2206 1.72113 9.26065 2.20939 7.49672 3.18592C5.75728 4.16244 4.38535 5.51737 3.38089 7.2507C2.37642 8.95962 1.87419 10.8761 1.87419 13C1.87419 15.1239 2.37642 17.0526 3.38089 18.7859C4.38535 20.4948 5.75728 21.8376 7.49672 22.8141C9.26065 23.7906 11.2206 24.2789 13.3765 24.2789Z" fill="white"/>
<path d="M32.3266 26C29.8032 26 27.5248 25.4385 25.4914 24.3155C23.458 23.1681 21.8532 21.6056 20.6773 19.6282C19.5258 17.6507 18.9501 15.4413 18.9501 13C18.9501 10.5587 19.5258 8.3493 20.6773 6.37183C21.8532 4.39437 23.458 2.84413 25.4914 1.72113C27.5248 0.573709 29.8032 0 32.3266 0C34.85 0 37.1284 0.561502 39.1619 1.68451C41.1953 2.80751 42.7877 4.35775 43.9392 6.33521C45.1151 8.31268 45.7031 10.5343 45.7031 13C45.7031 15.4657 45.1151 17.6873 43.9392 19.6648C42.7877 21.6423 41.1953 23.1925 39.1619 24.3155C37.1284 25.4385 34.85 26 32.3266 26ZM32.3266 24.2789C34.4825 24.2789 36.4302 23.7906 38.1697 22.8141C39.9091 21.8376 41.281 20.4948 42.2855 18.7859C43.29 17.0526 43.7922 15.1239 43.7922 13C43.7922 10.8761 43.29 8.95962 42.2855 7.2507C41.281 5.51737 39.9091 4.16244 38.1697 3.18592C36.4302 2.20939 34.4825 1.72113 32.3266 1.72113C30.1707 1.72113 28.2108 2.20939 26.4468 3.18592C24.7074 4.16244 23.3355 5.51737 22.331 7.2507C21.3265 8.95962 20.8243 10.8761 20.8243 13C20.8243 15.1239 21.3265 17.0526 22.331 18.7859C23.3355 20.4948 24.7074 21.8376 26.4468 22.8141C28.2108 23.7906 30.1707 24.2789 32.3266 24.2789Z" fill="white"/>
</g>
</svg>
